<?xml version="1.0" encoding="utf-8"?>
<svg xmlns="http://www.w3.org/2000/svg" viewBox="13.224 8.9529 15.4703 21.7667" width="792.079pt" height="1486.67pt">
  <path d="M 19.797 9.024 C 19.276 9.109 19.043 9.166 18.686 9.303 C 18.242 9.471 17.545 9.814 17.457 9.906 C 17.44 9.923 17.334 10.003 17.223 10.078 C 16.708 10.433 15.889 11.234 15.525 11.74 C 15.45 11.848 15.351 11.974 15.31 12.015 C 15.269 12.055 15.233 12.112 15.233 12.141 C 15.233 12.168 15.199 12.226 15.164 12.266 C 14.976 12.467 14.122 14.146 14.122 14.317 C 14.122 14.351 14.099 14.42 14.063 14.477 C 14.006 14.58 13.777 15.263 13.665 15.663 C 13.531 16.162 13.425 16.678 13.292 17.583 C 13.198 18.212 13.203 20.614 13.297 21.25 C 13.454 22.344 13.649 23.26 13.801 23.655 C 13.841 23.764 13.917 23.983 13.963 24.143 C 14.251 25.053 14.841 26.331 15.24 26.898 C 15.333 27.029 15.409 27.168 15.409 27.19 C 15.409 27.219 15.456 27.295 15.514 27.358 C 15.574 27.413 15.649 27.51 15.678 27.558 C 15.925 27.981 17.381 29.426 17.756 29.615 C 17.832 29.655 17.908 29.705 17.925 29.723 C 18.03 29.849 19.036 30.324 19.475 30.456 C 20.254 30.69 20.459 30.725 21.255 30.719 C 22.501 30.714 23.501 30.404 24.537 29.712 C 24.999 29.397 25.777 28.674 26.093 28.262 C 26.187 28.141 26.297 27.999 26.344 27.952 C 26.538 27.758 26.995 27.007 27.304 26.394 C 27.655 25.694 27.825 25.26 28.101 24.372 C 28.17 24.154 28.363 23.306 28.48 22.711 C 28.902 20.528 28.697 17.909 27.896 15.492 C 27.655 14.765 27.064 13.401 26.936 13.287 C 26.918 13.269 26.843 13.143 26.766 13.001 C 26.638 12.77 26.14 12.042 26.058 11.968 C 26.04 11.952 25.953 11.837 25.853 11.711 C 25.678 11.476 24.754 10.559 24.461 10.318 C 24.373 10.25 24.273 10.192 24.245 10.192 C 24.21 10.192 24.185 10.17 24.185 10.141 C 24.185 10.112 24.11 10.061 24.01 10.021 C 23.916 9.981 23.835 9.935 23.835 9.911 C 23.835 9.821 22.606 9.269 22.138 9.155 C 21.289 8.938 20.546 8.898 19.797 9.024 Z" fill="#000000" stroke="none" style=""/>
</svg>