<?xml version="1.0" encoding="utf-8"?>
<svg xmlns="http://www.w3.org/2000/svg" viewBox="9.8258 4.9283 21.7101 29.1292" width="21.7101px" height="29.1292px">
  <path fill="#FFFFFF" opacity="1.000000" stroke="none" d="M 10.394 23.923 C 10.127 22.781 9.955 21.666 9.875 20.527 C 9.74 18.599 9.881 16.696 10.319 14.818 C 10.747 12.983 11.442 11.252 12.5 9.669 C 13.733 7.824 15.295 6.333 17.424 5.508 C 19.664 4.647 21.889 4.759 24.068 5.751 C 25.164 6.248 26.128 6.942 26.971 7.776 C 28.369 9.161 29.397 10.79 30.136 12.594 C 30.823 14.263 31.264 15.992 31.41 17.79 C 31.468 18.503 31.545 19.217 31.535 19.931 C 31.493 22.801 30.926 25.563 29.558 28.131 C 28.582 29.968 27.294 31.55 25.491 32.689 C 23.838 33.733 22.027 34.207 20.06 34.016 C 18.818 33.896 17.661 33.496 16.579 32.88 C 14.919 31.933 13.643 30.611 12.609 29.054 C 11.567 27.484 10.861 25.769 10.394 23.923 Z" style=""/>
</svg>