<?xml version="1.0" encoding="utf-8"?>
<svg xmlns="http://www.w3.org/2000/svg" viewBox="2.274 3.7623 197.5842 95.8325" width="197.584px" height="95.8325px">
  <g transform="matrix(0.02162500098347664, 0, 0, -0.02548600174486637, 503.16796875, 502.2342529296875)" fill="#000000" stroke="none" style="">
    <path d="M -23113 19553.2 C -23131 19544.8 -23155 19509.9 -23160 19484.7 C -23168 19435.6 -23157 19088.6 -23145 18984.6 C -23077 18434.2 -22878 17950.2 -22529 17485.7 C -22447 17375.8 -22230 17138.1 -22120 17036.6 C -21421 16395.1 -20465 15980.3 -19373 15845.3 C -18945 15792.3 -18469 15783.9 -18032 15822 C -16853 15926 -15814 16351.8 -15068 17036.6 C -14958 17138.1 -14741 17375.8 -14659 17485.7 C -14310 17950.2 -14112 18434.2 -14043 18984.6 C -14028 19106.1 -14020 19458.2 -14031 19496.3 C -14047 19546.7 -14093 19571.3 -14134 19550 C -14172 19529.9 -14173 19521.5 -14175 19318 C -14178 19077.7 -14194 18931 -14240 18722.3 C -14436 17839.7 -15074 17062.5 -16011 16566.3 C -16653 16226.5 -17369 16033.3 -18210 15972.5 C -18354 15962.2 -18834 15962.2 -18978 15972.5 C -19735 16026.8 -20384 16187 -20978 16466.8 C -22025 16960.4 -22737 17775.1 -22948 18722.3 C -22994 18931 -23010 19077.7 -23013 19318 C -23015 19520.9 -23017 19529.9 -23053 19549.3 C -23075 19560.3 -23093 19561.6 -23113 19553.2 Z" style=""/>
  </g>
</svg>